<svg width="24" height="24" viewBox="0 0 24 24" fill="none" xmlns="http://www.w3.org/2000/svg">
<path d="M12 0C5.38311 0 0 5.38311 0 12C0 18.6169 5.38311 24 12 24C18.6169 24 24 18.6169 24 12C24 5.38311 18.6169 0 12 0ZM12 23.1111C5.87333 23.1111 0.888889 18.1267 0.888889 12C0.888889 5.87333 5.87333 0.888889 12 0.888889C18.1267 0.888889 23.1111 5.87333 23.1111 12C23.1111 18.1267 18.1267 23.1111 12 23.1111Z" fill="#7adcec"/>
<path d="M14.4058 6.35244C14.232 6.17866 13.9511 6.17866 13.7773 6.35244L8.6671 11.4627C8.37065 11.7591 8.37065 12.2409 8.6671 12.5373L13.7773 17.6476C13.864 17.7342 13.9778 17.7778 14.0915 17.7778C14.2053 17.7778 14.3191 17.7342 14.4058 17.6476C14.5795 17.4738 14.5795 17.1929 14.4058 17.0191L9.38665 12L14.4058 6.98088C14.5795 6.80711 14.5795 6.52622 14.4058 6.35244Z" fill="#7adcec"/>
</svg>
